<svg xmlns="http://www.w3.org/2000/svg" width="59.779" height="59.779" viewBox="0 0 59.779 59.779">
  <g id="Car_Garage" data-name="Car Garage" transform="translate(9.295 20.844)">
    <g id="Ñëîé_1" data-name="Ñëîé 1" transform="translate(5.63 5.63)">
      <path id="Path_189" data-name="Path 189" d="M79.6,144.621a3.991,3.991,0,0,0-3.991-3.991H69.621a3.991,3.991,0,0,0-3.991,3.991" transform="translate(-57.649 -122.672)" fill="none" stroke="#bf1e2e" stroke-linecap="round" stroke-linejoin="round" stroke-width="2"/>
      <path id="Path_190" data-name="Path 190" d="M57.578,65.63c0,2.205-4.908,2-10.974,2s-10.974.21-10.974-2" transform="translate(-31.639 -57.649)" fill="none" stroke="#bf1e2e" stroke-linecap="round" stroke-linejoin="round" stroke-width="2"/>
      <path id="Path_191" data-name="Path 191" d="M5.63,114.569h4.988a1,1,0,0,0,1-1c0-2.207-1.785-2.993-3.991-2.993l-1.367-.008" transform="translate(-5.63 -96.611)" fill="none" stroke="#bf1e2e" stroke-linecap="round" stroke-linejoin="round" stroke-width="2"/>
      <path id="Path_192" data-name="Path 192" d="M191.616,114.621h-4.988a1,1,0,0,1-1-1c0-2.207,1.784-2.993,3.991-2.993h1.369" transform="translate(-161.686 -96.663)" fill="none" stroke="#bf1e2e" stroke-linecap="round" stroke-linejoin="round" stroke-width="2"/>
      <path id="Path_193" data-name="Path 193" d="M9.621,65.63H6.628a1,1,0,0,0-1,1v1a2,2,0,0,0,2,2v.1c-2,2-2,3.891-2,5.886V82.59a1,1,0,0,0,1,1h3.991a1,1,0,0,0,1-1V79.6H29.574V82.59a1,1,0,0,0,1,1h3.991a1,1,0,0,0,1-1V75.607c0-2,0-3.891-2-5.886v-.1a2,2,0,0,0,2-2v-1a1,1,0,0,0-1-1H31.569" transform="translate(-5.63 -57.649)" fill="none" stroke="#bf1e2e" stroke-linecap="round" stroke-linejoin="round" stroke-width="2"/>
      <path id="Path_194" data-name="Path 194" d="M57.578,13.611l-2-5.986c-.375-1-1.785-2-3.991-2H41.616c-2.207,0-3.617,1-3.991,2l-2,5.986" transform="translate(-31.639 -5.63)" fill="none" stroke="#bf1e2e" stroke-linecap="round" stroke-linejoin="round" stroke-width="2"/>
    </g>
    <path id="Path_195" data-name="Path 195" d="M390,984.6l6.938,32.931L429.9,1024.5" transform="translate(1020.797 429.491) rotate(135)" fill="none" stroke="#bf1e2e" stroke-linecap="round" stroke-linejoin="round" stroke-width="2"/>
  </g>
</svg>
