<svg xmlns="http://www.w3.org/2000/svg" width="32.427" height="44.215" viewBox="0 0 32.427 44.215">
  <g id="Layer_2" data-name="Layer 2" transform="translate(0.5 0.5)">
    <g id="Capa_1" data-name="Capa 1" transform="translate(0 0)">
      <path id="Path_120" data-name="Path 120" d="M21.89,138.52V142.9l.81-1.133a.659.659,0,0,1,1.076,0l.8,1.141V138.52Z" transform="translate(-16.189 -102.444)" fill="none" stroke="#fff" stroke-width="1"/>
      <path id="Path_121" data-name="Path 121" d="M29.611,38.459h21.1V5H27.83V38.459Zm-.94-10.709h2.446V20.277a.654.654,0,0,1,.089-.326.782.782,0,0,1-.112,0h-.984a.656.656,0,0,1-.435-1.149l.742-.651a.656.656,0,0,1,.927.063l-1.729,1.513h0a.654.654,0,0,1,.063-.925l8.766-7.709a.659.659,0,0,1,.927.063h0l-4.623,4.081h0a.659.659,0,0,1,.063-.927l1.464-1.284a.659.659,0,0,1,.927.063l.477-.417h0a.656.656,0,0,1,.06-.927l.74-.651a.656.656,0,0,1,.865,0l.745.646a.656.656,0,0,1,.063.927l.487.422h0a.656.656,0,0,1,.927-.063l1.474,1.284a.654.654,0,0,1,.063.925l-4.654-4.078h0a.656.656,0,0,1,.927-.063L48.189,18.8a.659.659,0,0,1,.065.927L46.519,18.22a.659.659,0,0,1,.927-.065l.742.648a.656.656,0,0,1-.43,1.151h-.977a.781.781,0,0,1-.112,0,.656.656,0,0,1,.091.326v7.469h2.222a.656.656,0,0,1,0,1.3H28.669a.656.656,0,1,1,0-1.3Z" transform="translate(-20.582 -3.698)" fill="none" stroke="#fff" stroke-width="1"/>
      <path id="Path_122" data-name="Path 122" d="M49.479,0H25.3a.656.656,0,0,1,.659.656V1.3H48.826V34.761H27.73a.659.659,0,0,1,.669.659v.656h21.08a.656.656,0,0,0,.659-.656V.656A.656.656,0,0,0,49.479,0Z" transform="translate(-18.711 0)" fill="#fff" stroke="#fff" stroke-width="1"/>
      <path id="Path_123" data-name="Path 123" d="M25.959,134.129a.656.656,0,0,1-.659.656h1.787v-.656a.656.656,0,0,1,.654-.659H25.959Z" transform="translate(-18.711 -98.709)" fill="#fff" stroke="#fff" stroke-width="1"/>
      <path id="Path_124" data-name="Path 124" d="M5.045,34.761H1.315V1.3H5.933V34.761H5.045a.656.656,0,0,1,.656.659v.656h.888a.656.656,0,0,0,.659-.656V.656A.656.656,0,0,0,6.589,0H.656A.656.656,0,0,0,0,.656V35.42a.656.656,0,0,0,.656.656H4.388V35.42a.656.656,0,0,1,.656-.659Z" transform="translate(0 0)" fill="#fff" stroke="#fff" stroke-width="1"/>
      <path id="Path_125" data-name="Path 125" d="M21.535,133.243a.656.656,0,0,0-.654.659v5.04l-.8-1.133a.659.659,0,0,0-1.065,0l-.8,1.141V133.9a.656.656,0,1,0-1.3,0v7.123a.656.656,0,0,0,1.2.375l1.456-2.083L21.02,141.4a.659.659,0,0,0,.537.284.641.641,0,0,0,.2-.031.659.659,0,0,0,.461-.628V133.9a.659.659,0,0,0-.68-.659Z" transform="translate(-12.506 -98.482)" fill="#fff" stroke="#fff" stroke-width="1"/>
      <path id="Path_126" data-name="Path 126" d="M96.241,61.174a.815.815,0,0,0-.115,0,.656.656,0,0,0-.656.656v7.462h1.3V61.82a.656.656,0,0,0-.091-.326A.646.646,0,0,1,96.241,61.174Z" transform="translate(-70.606 -45.241)" fill="#fff" stroke="#fff" stroke-width="1"/>
      <path id="Path_127" data-name="Path 127" d="M41.785,69.263V61.791a.656.656,0,0,0-.649-.656.816.816,0,0,0-.112,0,.656.656,0,0,1-.456.32.654.654,0,0,0-.089.326v7.482Z" transform="translate(-29.937 -45.211)" fill="#fff" stroke="#fff" stroke-width="1"/>
      <path id="Path_128" data-name="Path 128" d="M66.077,29.577l.31-.26.31.26a.656.656,0,0,0,.927-.063h0a.656.656,0,0,0-.062-.927l-.753-.648a.656.656,0,0,0-.865,0l-.74.651a.656.656,0,0,0-.06.927h0a.656.656,0,0,0,.495.221A.646.646,0,0,0,66.077,29.577Z" transform="translate(-48.058 -20.542)" fill="#fff" stroke="#fff" stroke-width="1"/>
      <path id="Path_129" data-name="Path 129" d="M76.594,36.348l1.474,1.284a.654.654,0,0,0,.925-.065h0a.654.654,0,0,0-.063-.925l-1.474-1.284a.656.656,0,0,0-.927.063h0a.654.654,0,0,0,.065.927Z" transform="translate(-56.477 -26.029)" fill="#fff" stroke="#fff" stroke-width="1"/>
      <path id="Path_130" data-name="Path 130" d="M68.194,28.928l8.826,7.717a.662.662,0,0,0,.93-.063h0a.659.659,0,0,0-.076-.935l-8.816-7.709a.656.656,0,0,0-.927.063h0a.659.659,0,0,0,.063.927Z" transform="translate(-50.268 -20.542)" fill="#fff" stroke="#fff" stroke-width="1"/>
      <path id="Path_131" data-name="Path 131" d="M98.32,55.687a.651.651,0,0,0-.26.521.638.638,0,0,0,.091.326.646.646,0,0,0,.453.32.78.78,0,0,0,.112,0H99.7a.656.656,0,0,0,.425-1.151l-.742-.648a.659.659,0,0,0-.927.065h0A.664.664,0,0,0,98.32,55.687Z" transform="translate(-72.521 -40.598)" fill="#fff" stroke="#fff" stroke-width="1"/>
      <path id="Path_132" data-name="Path 132" d="M36.372,58.737h16.78a.656.656,0,0,0,0-1.3H36.372a.656.656,0,1,0,0,1.3Z" transform="translate(-26.353 -42.473)" fill="#fff" stroke="#fff" stroke-width="1"/>
      <path id="Path_133" data-name="Path 133" d="M36.266,56.547a.661.661,0,0,0,.089-.326.651.651,0,0,0-.26-.521.656.656,0,0,0-.151-.56h0a.656.656,0,0,0-.927-.063l-.737.641a.656.656,0,0,0,.435,1.149H35.7a.782.782,0,0,0,.112,0A.656.656,0,0,0,36.266,56.547Z" transform="translate(-25.187 -40.613)" fill="#fff" stroke="#fff" stroke-width="1"/>
      <path id="Path_134" data-name="Path 134" d="M35.146,36.645l8.769-7.717a.659.659,0,0,0,.06-.925h0a.659.659,0,0,0-.927-.063L34.281,35.65a.654.654,0,0,0-.063.925h0a.656.656,0,0,0,.495.224A.641.641,0,0,0,35.146,36.645Z" transform="translate(-25.187 -20.545)" fill="#fff" stroke="#fff" stroke-width="1"/>
      <path id="Path_135" data-name="Path 135" d="M54.908,37.635l1.464-1.284a.659.659,0,0,0,.063-.927h0a.659.659,0,0,0-.927-.063l-1.464,1.284a.659.659,0,0,0-.063.927h0a.656.656,0,0,0,.495.224A.667.667,0,0,0,54.908,37.635Z" transform="translate(-39.803 -26.032)" fill="#fff" stroke="#fff" stroke-width="1"/>
      <path id="Path_136" data-name="Path 136" d="M28.962,93.648h8.73a.656.656,0,0,1-.656-.656v-.656H28.962a.656.656,0,1,0,0,1.3Z" transform="translate(-20.873 -68.284)" fill="#fff" stroke="#fff" stroke-width="1"/>
      <path id="Path_137" data-name="Path 137" d="M72.625,92.35h-4.81v.333a.656.656,0,0,1-1.3,0V92.35H65.236v.656a.656.656,0,0,1-.656.656H76.162a.656.656,0,0,0,0-1.3H72.625Z" transform="translate(-47.761 -68.298)" fill="#fff" stroke="#fff" stroke-width="1"/>
      <path id="Path_138" data-name="Path 138" d="M63.373,76.78V71.725h1.261v4.732a.656.656,0,0,0,1.3,0V71.069a.656.656,0,0,0-.656-.659H62.716a.656.656,0,0,0-.656.659V76.78a.656.656,0,0,0,1.3,0Z" transform="translate(-45.897 -52.072)" fill="#fff" stroke="#fff" stroke-width="1"/>
    </g>
  </g>
</svg>
