<svg xmlns="http://www.w3.org/2000/svg" width="37.004" height="38.289" viewBox="0 0 37.004 38.289">
  <g id="Layer_2" data-name="Layer 2" transform="translate(0.564 0.5)">
    <g id="Layer_1" data-name="Layer 1" transform="translate(-0.027 0)">
      <path id="Path_23" data-name="Path 23" d="M59.363,15.12H56.233v1.124H58.8V47.877H32.044V45.611H30.92v2.833a.567.567,0,0,0,.567.567H59.363a.567.567,0,0,0,.567-.567V15.687a.569.569,0,0,0-.567-.567Z" transform="translate(-23.963 -11.721)" fill="#fff" stroke="#fff" stroke-width="1"/>
      <path id="Path_24" data-name="Path 24" d="M19.3,33.89H42.923a.569.569,0,0,0,.569-.569V.567A.567.567,0,0,0,42.923,0H15.046a.567.567,0,0,0-.567.567v2.9a3.849,3.849,0,0,1,1.135-.043v-2.3H42.367V32.757H15.615V22.207a2.7,2.7,0,0,0-1.135.022V33.321a.567.567,0,0,0,.567.569h4.271Z" transform="translate(-11.219 0)" fill="#fff" stroke="#fff" stroke-width="1"/>
      <path id="Path_25" data-name="Path 25" d="M15.046,67.784a3.977,3.977,0,0,1,.519.034V60.354a2.866,2.866,0,0,0-.42-.034,2.715,2.715,0,0,0-.715.1v7.419A4.047,4.047,0,0,1,15.046,67.784Z" transform="translate(-11.18 -46.76)" fill="#fff" stroke="#fff" stroke-width="1"/>
      <path id="Path_26" data-name="Path 26" d="M15.145,28.1a2.636,2.636,0,0,1,.42.022V20.258a2.765,2.765,0,0,0-1.135.061v7.868A3.8,3.8,0,0,1,15.145,28.1Z" transform="translate(-11.18 -15.678)" fill="#fff" stroke="#fff" stroke-width="1"/>
      <path id="Path_27" data-name="Path 27" d="M4.716,16.294a2.722,2.722,0,0,1,1.506,4.618.567.567,0,1,0,.8.8,3.86,3.86,0,1,0-5.461,0,.567.567,0,0,0,.8-.8,2.722,2.722,0,0,1,1.214-4.557,2.765,2.765,0,0,1,1.142-.061Z" transform="translate(-0.331 -11.723)" fill="#fff" stroke="#fff" stroke-width="1"/>
      <path id="Path_28" data-name="Path 28" d="M4.283,56.405a2.867,2.867,0,0,1,.42.034A2.725,2.725,0,0,1,6.21,61.054a.567.567,0,1,0,.8.8A3.86,3.86,0,0,0,4.7,55.292c-.139-.013-.281-.022-.42-.022a3.8,3.8,0,0,0-.715.067,3.86,3.86,0,0,0-2.023,6.519.567.567,0,1,0,.8-.8A2.729,2.729,0,0,1,4.277,56.4Z" transform="translate(-0.318 -42.845)" fill="#fff" stroke="#fff" stroke-width="1"/>
      <path id="Path_29" data-name="Path 29" d="M3.839,94.653a2.824,2.824,0,0,1,.519.049,2.727,2.727,0,0,1,1.407,4.6.568.568,0,0,0,.8.8,3.86,3.86,0,0,0-2.212-6.553,3.977,3.977,0,0,0-.519-.034,4.046,4.046,0,0,0-.616.049,3.858,3.858,0,0,0-2.12,6.537.567.567,0,0,0,.8-.8,2.725,2.725,0,0,1,1.311-4.582A2.8,2.8,0,0,1,3.839,94.653Z" transform="translate(0.027 -72.496)" fill="#fff" stroke="#fff" stroke-width="1"/>
      <line id="Line_11" data-name="Line 11" y1="0.567" transform="translate(29.011 11.335)" fill="none" stroke="#fff" stroke-linecap="round" stroke-linejoin="round" stroke-width="0"/>
      <line id="Line_12" data-name="Line 12" y1="0.567" transform="translate(29.011 14.736)" fill="none" stroke="#fff" stroke-linecap="round" stroke-linejoin="round" stroke-width="0"/>
      <line id="Line_13" data-name="Line 13" y1="0.569" transform="translate(29.011 7.933)" fill="none" stroke="#fff" stroke-linecap="round" stroke-linejoin="round" stroke-width="0"/>
      <line id="Line_14" data-name="Line 14" y1="0.567" transform="translate(29.011 18.138)" fill="none" stroke="#fff" stroke-linecap="round" stroke-linejoin="round" stroke-width="0"/>
      <line id="Line_15" data-name="Line 15" y1="0.567" transform="translate(29.011 24.94)" fill="none" stroke="#fff" stroke-linecap="round" stroke-linejoin="round" stroke-width="0"/>
      <line id="Line_16" data-name="Line 16" y1="0.567" transform="translate(29.011 21.539)" fill="none" stroke="#fff" stroke-linecap="round" stroke-linejoin="round" stroke-width="0"/>
      <path id="Path_30" data-name="Path 30" d="M93.286,36.851h1.7a.569.569,0,0,0,0-1.135h-1.7a.569.569,0,1,0,0,1.135Z" transform="translate(-71.84 -27.686)" fill="#fff" stroke="#fff" stroke-width="1"/>
      <path id="Path_31" data-name="Path 31" d="M108.652,36.855h1.7a.569.569,0,0,0,0-1.135h-1.7a.569.569,0,0,0,0,1.135Z" transform="translate(-83.807 -27.69)" fill="#fff" stroke="#fff" stroke-width="1"/>
      <path id="Path_32" data-name="Path 32" d="M78.392,36.855h1.7a.569.569,0,0,0,0-1.135h-1.7a.569.569,0,0,0,0,1.135Z" transform="translate(-60.35 -27.69)" fill="#fff" stroke="#fff" stroke-width="1"/>
      <path id="Path_33" data-name="Path 33" d="M63.272,36.855h1.7a.569.569,0,0,0,0-1.135h-1.7a.569.569,0,0,0,0,1.135Z" transform="translate(-48.629 -27.69)" fill="#fff" stroke="#fff" stroke-width="1"/>
      <path id="Path_34" data-name="Path 34" d="M47.45,36.289a.567.567,0,0,0,.573.567h1.7a.569.569,0,0,0,0-1.135h-1.7a.567.567,0,0,0-.573.569Z" transform="translate(-36.777 -27.69)" fill="#fff" stroke="#fff" stroke-width="1"/>
      <path id="Path_35" data-name="Path 35" d="M93.286,54.851h1.7a.569.569,0,0,0,0-1.135h-1.7a.569.569,0,1,0,0,1.135Z" transform="translate(-71.84 -41.639)" fill="#fff" stroke="#fff" stroke-width="1"/>
      <path id="Path_36" data-name="Path 36" d="M108.652,54.855h1.7a.569.569,0,0,0,0-1.135h-1.7a.569.569,0,0,0,0,1.135Z" transform="translate(-83.807 -41.643)" fill="#fff" stroke="#fff" stroke-width="1"/>
      <path id="Path_37" data-name="Path 37" d="M78.392,54.855h1.7a.569.569,0,0,0,0-1.135h-1.7a.569.569,0,0,0,0,1.135Z" transform="translate(-60.35 -41.643)" fill="#fff" stroke="#fff" stroke-width="1"/>
      <path id="Path_38" data-name="Path 38" d="M63.272,54.855h1.7a.569.569,0,0,0,0-1.135h-1.7a.569.569,0,0,0,0,1.135Z" transform="translate(-48.629 -41.643)" fill="#fff" stroke="#fff" stroke-width="1"/>
      <path id="Path_39" data-name="Path 39" d="M47.45,54.289a.567.567,0,0,0,.573.567h1.7a.569.569,0,0,0,0-1.135h-1.7a.567.567,0,0,0-.573.569Z" transform="translate(-36.777 -41.643)" fill="#fff" stroke="#fff" stroke-width="1"/>
      <path id="Path_40" data-name="Path 40" d="M93.108,72.871h1.7a.569.569,0,0,0,0-1.124h-1.7a.569.569,0,1,0,0,1.124Z" transform="translate(-71.662 -55.612)" fill="#fff" stroke="#fff" stroke-width="1"/>
      <path id="Path_41" data-name="Path 41" d="M108.83,72.894h1.7a.569.569,0,0,0,0-1.124h-1.7a.569.569,0,0,0,0,1.124Z" transform="translate(-83.985 -55.636)" fill="#fff" stroke="#fff" stroke-width="1"/>
      <path id="Path_42" data-name="Path 42" d="M78.57,72.894h1.7a.569.569,0,0,0,0-1.124h-1.7a.569.569,0,0,0,0,1.124Z" transform="translate(-60.528 -55.636)" fill="#fff" stroke="#fff" stroke-width="1"/>
      <path id="Path_43" data-name="Path 43" d="M63.45,72.894h1.7a.569.569,0,0,0,0-1.124h-1.7a.569.569,0,0,0,0,1.124Z" transform="translate(-48.807 -55.636)" fill="#fff" stroke="#fff" stroke-width="1"/>
      <path id="Path_44" data-name="Path 44" d="M47.45,72.327a.567.567,0,0,0,.573.567h1.7a.569.569,0,0,0,0-1.124h-1.7A.567.567,0,0,0,47.45,72.327Z" transform="translate(-36.777 -55.635)" fill="#fff" stroke="#fff" stroke-width="1"/>
      <path id="Path_45" data-name="Path 45" d="M93.108,90.871h1.7a.569.569,0,0,0,0-1.124h-1.7a.569.569,0,1,0,0,1.124Z" transform="translate(-71.662 -69.566)" fill="#fff" stroke="#fff" stroke-width="1"/>
      <path id="Path_46" data-name="Path 46" d="M108.83,90.894h1.7a.569.569,0,0,0,0-1.124h-1.7a.569.569,0,0,0,0,1.124Z" transform="translate(-83.985 -69.589)" fill="#fff" stroke="#fff" stroke-width="1"/>
      <path id="Path_47" data-name="Path 47" d="M78.57,90.894h1.7a.569.569,0,0,0,0-1.124h-1.7a.569.569,0,0,0,0,1.124Z" transform="translate(-60.528 -69.589)" fill="#fff" stroke="#fff" stroke-width="1"/>
      <path id="Path_48" data-name="Path 48" d="M63.45,90.894h1.7a.569.569,0,0,0,0-1.124h-1.7a.569.569,0,0,0,0,1.124Z" transform="translate(-48.807 -69.589)" fill="#fff" stroke="#fff" stroke-width="1"/>
      <path id="Path_49" data-name="Path 49" d="M47.45,90.327a.567.567,0,0,0,.573.567h1.7a.569.569,0,0,0,0-1.124h-1.7A.567.567,0,0,0,47.45,90.327Z" transform="translate(-36.777 -69.589)" fill="#fff" stroke="#fff" stroke-width="1"/>
      <path id="Path_50" data-name="Path 50" d="M78.57,108.894h1.7a.569.569,0,0,0,0-1.124h-1.7a.569.569,0,0,0,0,1.124Z" transform="translate(-60.528 -83.542)" fill="#fff" stroke="#fff" stroke-width="1"/>
      <path id="Path_51" data-name="Path 51" d="M63.45,108.894h1.7a.569.569,0,0,0,0-1.124h-1.7a.569.569,0,0,0,0,1.124Z" transform="translate(-48.807 -83.542)" fill="#fff" stroke="#fff" stroke-width="1"/>
      <path id="Path_52" data-name="Path 52" d="M47.45,108.327a.567.567,0,0,0,.573.567h1.7a.569.569,0,0,0,0-1.124h-1.7A.567.567,0,0,0,47.45,108.327Z" transform="translate(-36.777 -83.542)" fill="#fff" stroke="#fff" stroke-width="1"/>
    </g>
  </g>
</svg>
