<svg xmlns="http://www.w3.org/2000/svg" width="37.279" height="37.093" viewBox="0 0 37.279 37.093">
  <g id="Layer_2" data-name="Layer 2" transform="translate(0.122 0.539)">
    <g id="Capa_1" data-name="Capa 1" transform="translate(0.378 -0.039)">
      <path id="Path_2" data-name="Path 2" d="M106.49,1.847l.429.427a5.535,5.535,0,0,1,7.783,7.783l.371.365a.56.56,0,0,1,0,.794l-.743.743a6.662,6.662,0,1,0-8.6-10.144.556.556,0,0,1,.76.027Z" transform="translate(-82.304 0.039)" fill="#fff" stroke="#fff" stroke-width="1"/>
      <path id="Path_3" data-name="Path 3" d="M105.18,8.84Z" transform="translate(-81.876 -6.866)" fill="#fff" stroke="#fff" stroke-width="1"/>
      <path id="Path_4" data-name="Path 4" d="M19.5,26.917a.56.56,0,0,1,.543.145l8.581,8.583a.56.56,0,0,1,.147.54.567.567,0,0,1-.16.265l.016-.011L47.083,17.983l.743-.743a.56.56,0,0,0,0-.794l-.391-.38-3.9-3.909a.556.556,0,0,1,0,.792l-.4.4,3.5,3.5-18.4,18.4-7.783-7.783,18.4-18.4,3.491,3.491.4-.4a.56.56,0,0,1,.792,0L39.669,8.293l-.429-.427a.556.556,0,0,0-.76-.027.331.331,0,0,0-.031.027l-.089.089h0L19.25,27.062h0a.549.549,0,0,1,.251-.145Z" transform="translate(-15.054 -5.98)" fill="#fff" stroke="#fff" stroke-width="1"/>
      <path id="Path_5" data-name="Path 5" d="M60.989,137.2l-.029.02Z" transform="translate(-47.489 -106.684)" fill="#fff" stroke="#fff" stroke-width="1"/>
      <path id="Path_6" data-name="Path 6" d="M18.918,95.13a.091.091,0,0,1,0-.02A.091.091,0,0,0,18.918,95.13Z" transform="translate(-14.795 -73.953)" fill="#fff" stroke="#fff" stroke-width="1"/>
      <path id="Path_7" data-name="Path 7" d="M60.522,137.48H60.5Z" transform="translate(-47.131 -106.901)" fill="#fff" stroke="#fff" stroke-width="1"/>
      <path id="Path_8" data-name="Path 8" d="M9.4,101.9a.56.56,0,0,1,.54.147l.222.222,1.794-6.6,7.213,7.216-6.6,1.8.222.222a.565.565,0,0,1,.145.54.554.554,0,0,1-.385.394l7.836-2.132a.191.191,0,0,0,.047-.016h.022a.445.445,0,0,0,.08-.042l.029-.02a.59.59,0,0,0,.058-.047.567.567,0,0,0,.16-.265.56.56,0,0,0-.147-.54L12.073,94.2a.56.56,0,0,0-.543-.145.549.549,0,0,0-.253.147c-.022.024-.04.049-.06.073a.091.091,0,0,0,0,.02.523.523,0,0,0-.071.156L9,102.292a.558.558,0,0,1,.4-.394Z" transform="translate(-7.083 -73.115)" fill="#fff" stroke="#fff" stroke-width="1"/>
      <path id="Path_9" data-name="Path 9" d="M6.759,152a.56.56,0,0,1-.149.02A.56.56,0,0,0,6.759,152Z" transform="translate(-5.224 -118.193)" fill="#fff" stroke="#fff" stroke-width="1"/>
      <path id="Path_10" data-name="Path 10" d="M4.652,134.374a.56.56,0,0,0,.149-.02l3.94-1.072h0a.554.554,0,0,0,.385-.394.565.565,0,0,0-.145-.54l-.222-.222L6.353,129.7l-.222-.222a.558.558,0,0,0-.947.24h0l-1.072,3.942a.563.563,0,0,0,.54.709Zm2.864-1.921-2.066.565.563-2.064Z" transform="translate(-3.267 -100.545)" fill="#fff" stroke="#fff" stroke-width="1"/>
      <path id="Path_11" data-name="Path 11" d="M72.736,27.158a.56.56,0,0,0-.792,0l-.4.4L56.971,42.133a.56.56,0,1,0,.792.792L72.34,28.349l.4-.4a.556.556,0,0,0,0-.792Z" transform="translate(-44.258 -20.983)" fill="#fff" stroke="#fff" stroke-width="1"/>
      <line id="Line_1" data-name="Line 1" x1="0.56" transform="translate(26.27 35.519)" fill="none" stroke="#fff" stroke-linecap="round" stroke-linejoin="round" stroke-width="0"/>
      <line id="Line_2" data-name="Line 2" x1="0.56" transform="translate(29.634 35.519)" fill="none" stroke="#fff" stroke-linecap="round" stroke-linejoin="round" stroke-width="0"/>
      <line id="Line_3" data-name="Line 3" x2="0.56" transform="translate(16.177 35.519)" fill="none" stroke="#fff" stroke-linecap="round" stroke-linejoin="round" stroke-width="0"/>
      <line id="Line_4" data-name="Line 4" x1="0.56" transform="translate(32.998 35.519)" fill="none" stroke="#fff" stroke-linecap="round" stroke-linejoin="round" stroke-width="0"/>
      <line id="Line_5" data-name="Line 5" x1="0.56" transform="translate(22.906 35.519)" fill="none" stroke="#fff" stroke-linecap="round" stroke-linejoin="round" stroke-width="0"/>
      <line id="Line_6" data-name="Line 6" x1="0.56" transform="translate(12.813 35.519)" fill="none" stroke="#fff" stroke-linecap="round" stroke-linejoin="round" stroke-width="0"/>
      <line id="Line_7" data-name="Line 7" x1="0.56" transform="translate(19.541 35.519)" fill="none" stroke="#fff" stroke-linecap="round" stroke-linejoin="round" stroke-width="0"/>
      <line id="Line_8" data-name="Line 8" x1="0.56" transform="translate(9.448 35.519)" fill="none" stroke="#fff" stroke-linecap="round" stroke-linejoin="round" stroke-width="0"/>
      <line id="Line_9" data-name="Line 9" x2="0.56" transform="translate(2.72 35.519)" fill="none" stroke="#fff" stroke-linecap="round" stroke-linejoin="round" stroke-width="0"/>
      <line id="Line_10" data-name="Line 10" x2="0.56" transform="translate(6.084 35.519)" fill="none" stroke="#fff" stroke-linecap="round" stroke-linejoin="round" stroke-width="0"/>
      <path id="Path_12" data-name="Path 12" d="M121.895,158.342h1.683a.563.563,0,0,0,0-1.112h-1.683a.563.563,0,0,0,0,1.112Z" transform="translate(-94.504 -122.26)" fill="#fff" stroke="#fff" stroke-width="1"/>
      <path id="Path_13" data-name="Path 13" d="M76.5,158.342h1.683a.563.563,0,0,0,0-1.112H76.5a.563.563,0,0,0,0,1.112Z" transform="translate(-59.207 -122.26)" fill="#fff" stroke="#fff" stroke-width="1"/>
      <path id="Path_14" data-name="Path 14" d="M.855,158.318H2.536a.563.563,0,1,0,0-1.112H.855a.563.563,0,0,0,0,1.112Z" transform="translate(-0.378 -122.237)" fill="#fff" stroke="#fff" stroke-width="1"/>
      <path id="Path_15" data-name="Path 15" d="M46.245,158.342h1.683a.563.563,0,0,0,0-1.112H46.245a.563.563,0,0,0,0,1.112Z" transform="translate(-35.676 -122.26)" fill="#fff" stroke="#fff" stroke-width="1"/>
      <path id="Path_16" data-name="Path 16" d="M106.765,158.342h1.683a.563.563,0,0,0,0-1.112h-1.683a.563.563,0,0,0,0,1.112Z" transform="translate(-82.738 -122.26)" fill="#fff" stroke="#fff" stroke-width="1"/>
      <path id="Path_17" data-name="Path 17" d="M91.635,158.342h1.683a.563.563,0,0,0,0-1.112H91.635a.563.563,0,0,0,0,1.112Z" transform="translate(-70.973 -122.26)" fill="#fff" stroke="#fff" stroke-width="1"/>
      <path id="Path_18" data-name="Path 18" d="M31.115,158.342H32.8a.563.563,0,0,0,0-1.112H31.115a.563.563,0,0,0,0,1.112Z" transform="translate(-23.91 -122.26)" fill="#fff" stroke="#fff" stroke-width="1"/>
      <path id="Path_19" data-name="Path 19" d="M61.335,158.342h1.683a.563.563,0,0,0,0-1.112H61.335a.563.563,0,0,0,0,1.112Z" transform="translate(-47.41 -122.26)" fill="#fff" stroke="#fff" stroke-width="1"/>
      <path id="Path_20" data-name="Path 20" d="M137.025,158.342h1.683a.563.563,0,0,0,0-1.112h-1.683a.563.563,0,0,0,0,1.112Z" transform="translate(-106.27 -122.26)" fill="#fff" stroke="#fff" stroke-width="1"/>
      <path id="Path_21" data-name="Path 21" d="M15.985,158.342h1.683a.563.563,0,0,0,0-1.112H15.985a.563.563,0,0,0,0,1.112Z" transform="translate(-12.144 -122.26)" fill="#fff" stroke="#fff" stroke-width="1"/>
      <path id="Path_22" data-name="Path 22" d="M152.155,158.342h1.683a.563.563,0,0,0,0-1.112h-1.683a.563.563,0,0,0,0,1.112Z" transform="translate(-118.036 -122.26)" fill="#fff" stroke="#fff" stroke-width="1"/>
    </g>
  </g>
</svg>
