<svg xmlns="http://www.w3.org/2000/svg" width="100" height="102.427" viewBox="0 0 100 102.427">
  <g id="energy_star_logo" data-name="energy star logo" transform="translate(-140.4 -34.1)">
    <g id="_148220104" transform="translate(140.4 34.1)">
      <path id="_24510480" d="M240.4,472.242h-100V449.9h100Z" transform="translate(-140.4 -369.815)" fill="#0093dd"/>
      <g id="Group_38" data-name="Group 38" transform="translate(0 0)">
        <g id="Group_37" data-name="Group 37">
          <g id="Group_35" data-name="Group 35">
            <path id="_24509072" d="M190.4,43.345A61.613,61.613,0,0,1,240.4,69V34.1h-100V68.981a61.569,61.569,0,0,1,50-25.636Z" transform="translate(-140.4 -34.1)" fill="#0093dd"/>
            <path id="_24503008" d="M190.481,94.9A60.075,60.075,0,0,0,140.5,121.653V160.79h99.981V121.672a60.1,60.1,0,0,0-50-26.772Z" transform="translate(-140.481 -83.19)" fill="#0093dd"/>
            <path id="_24502744" d="M190.481,84.565a60.126,60.126,0,0,1,50,26.772v-3.582a61.546,61.546,0,0,0-99.981-.019v3.582a60.075,60.075,0,0,1,49.981-26.753Z" transform="translate(-140.481 -72.855)" fill="#fff"/>
          </g>
          <g id="Group_36" data-name="Group 36" transform="translate(1.4 26.098)">
            <path id="_24502000" d="M156.129,263.666a8.6,8.6,0,0,0-.5,1.175,10.794,10.794,0,0,1-6.876.058.765.765,0,0,0-1.021.424.8.8,0,0,0,.4,1.04,11.875,11.875,0,0,0,7.126.212c0,.058-.019.116-.019.154a2.738,2.738,0,0,0,1.136,2.388c1.81,1.175,5.778.173,11.556-5.72a22.881,22.881,0,0,0-.924,3.428c0,.058-.019.1-.019.154a.8.8,0,0,0,.5.751c.616.25.982-.27,1.29-.713l.809-1.194a54.692,54.692,0,0,1,3.313-4.6,11.206,11.206,0,0,0-.25,2.157,2.486,2.486,0,0,0,1.021,2.331c.655.385,1.714.52,4.006-.847a1.48,1.48,0,0,0,.809.886c1.464.674,4.218-.79,7.107-3.544a17.469,17.469,0,0,0-.77,1.907,1.018,1.018,0,0,0-.019.231.8.8,0,0,0,.482.751c.636.27,1.04-.27,1.348-.732l.867-1.252a42.725,42.725,0,0,1,3.409-4.584,4.151,4.151,0,0,0,1.753,2.138,4.136,4.136,0,0,0-.4,1.6,1.436,1.436,0,0,0,.616,1.252c.732.5,1.868.231,3.043-.4-3.736,3.717-5.47,7.415-5.508,9.052v.1a1.44,1.44,0,0,0,.732,1.425c.559.289,1.252.116,2.061-.52,2.812-2.234,4.873-7.55,5.913-10.805a31.507,31.507,0,0,1,4.95-3.274,6.273,6.273,0,0,0-.963,2.908,2.162,2.162,0,0,0,.135.809,1.471,1.471,0,0,0,1.271,1c1.31.135,3.1-1.213,5.22-3.833-.173.52-.366,1.021-.539,1.522-5.894,4.642-8.532,9.592-8.879,12.288a3.417,3.417,0,0,0-.039.616,1.852,1.852,0,0,0,.828,1.791c.443.25,1.213.385,2.331-.482,1.252-.944,4.218-5.6,7.088-13.27a46.418,46.418,0,0,1,16.005-7.666.8.8,0,0,0,.578-.77.993.993,0,0,0-.039-.212.8.8,0,0,0-.982-.559,49.787,49.787,0,0,0-14.657,6.587q.664-1.994,1.329-4.218a.967.967,0,0,0,.039-.231.758.758,0,0,0-.462-.713.78.78,0,0,0-.982.289c-3.929,6.163-6.144,7.28-6.645,7.261a.673.673,0,0,1-.058-.231c0-.693.6-2.465,2.542-4.507a.828.828,0,0,0,.212-.539.772.772,0,0,0-.154-.443.783.783,0,0,0-.963-.27,34.2,34.2,0,0,0-6.471,3.6c.019-.077.039-.135.039-.154a.685.685,0,0,0,.039-.193.8.8,0,0,0-.424-.693c-.019,0-.019,0-.039-.019.539-.424,1.1-.886,1.695-1.445a2.04,2.04,0,0,0,.77-1.483,2.253,2.253,0,0,0-.058-.424,1.535,1.535,0,0,0-1.406-1c-1.733-.212-4.507,1.271-6.972,4.911a3.349,3.349,0,0,1-1.329-2.061l-.058-.193a.769.769,0,0,0-.751-.539c-.539,0-1.117.366-2,1.425.019-.019.019-.058.039-.077a.756.756,0,0,0,.077-.347.789.789,0,0,0-1.425-.462c-4.391,5.913-8.243,7.569-8.84,7.261a.728.728,0,0,1-.019-.154,1.8,1.8,0,0,1,.039-.27,44.562,44.562,0,0,0,3.505-2.812,3.6,3.6,0,0,0,1.56-2.581,1.408,1.408,0,0,0-.116-.6,1.569,1.569,0,0,0-1.656-.886c-1.637.135-3.659,2.042-4.7,5.932-2.542,1.733-3.236,1.483-3.332,1.425-.347-.193-.327-1.29.077-3.236.173-.867.25-1.252.058-1.618a1.084,1.084,0,0,0-.905-.578c-.828-.039-1.772.828-3.717,3.582a25.927,25.927,0,0,1,1.541-3.12.809.809,0,0,0,.116-.4.839.839,0,0,0-.327-.655.786.786,0,0,0-1.059.154c-6.934,8.455-11.633,10.227-12.981,9.341a1.176,1.176,0,0,1-.424-1.04,4.522,4.522,0,0,1,.077-.674,23.267,23.267,0,0,0,8.763-5.951c1.868-1.907,2.889-3.717,2.889-5.085a2.37,2.37,0,0,0-.154-.847,1.866,1.866,0,0,0-1.753-1.175c-2.465-.173-6.7,3.062-10.516,10.593Zm10.458-9.091c.289.019.347.135.366.193a1.136,1.136,0,0,1,.039.27c0,.693-.6,2.1-2.427,3.987a22.959,22.959,0,0,1-6.857,5.027c3.64-7.011,7.357-9.534,8.879-9.476Zm15.543,4.141a1.253,1.253,0,0,1,.539-.173,2.726,2.726,0,0,1-1.021,1.31c-.578.5-1.1.944-1.579,1.329a5.263,5.263,0,0,1,2.061-2.465ZM199.619,256a1.983,1.983,0,0,1,.616-.058,1.4,1.4,0,0,1-.173.193,14.1,14.1,0,0,1-4.661,3.159c1.965-2.542,3.679-3.159,4.218-3.293Zm-2.388,4.218a7.293,7.293,0,0,1-3.409,1.965,3.108,3.108,0,0,1,.385-1.136,5.756,5.756,0,0,0,3.024-.828Zm-.6,4.372c-1.079,2.754-2.6,5.855-4.43,7.3q-.144.116-.231.173c.077-1.136,1.483-4.2,4.661-7.473Zm5.2,9.765a5.2,5.2,0,0,1,.385-1.772,21.691,21.691,0,0,1,5.74-8.012c-2.408,5.8-4.68,9.226-5.508,9.861a2.1,2.1,0,0,1-.559.327.931.931,0,0,1-.058-.4Z" transform="translate(-147.667 -236.99)" fill="#fff"/>
            <path id="_24501840" d="M461.323,169.6a1.166,1.166,0,0,0-1.1.751s-4.334,11.094-4.815,12.365c-1.348.077-13.193.693-13.193.693a1.181,1.181,0,0,0-1.117,1.175v.058a1.185,1.185,0,0,0,1.252,1.117l13.964-.732a1.2,1.2,0,0,0,1.04-.751s2.639-6.8,4.006-10.266c1.348,3.467,3.987,10.227,3.987,10.227a1.227,1.227,0,0,0,1.021.751s7.2.4,10.882.636c-2.831,2.35-8.417,6.992-8.417,6.992a1.191,1.191,0,0,0-.424.905,1.485,1.485,0,0,0,.039.289s1.791,6.992,2.716,10.574c-3.1-2-9.149-5.894-9.149-5.894a1.169,1.169,0,0,0-1.271,0s-6.106,3.891-9.284,5.913c.963-3.486,2.7-9.746,2.7-9.746a1.689,1.689,0,0,0,.039-.308,1.19,1.19,0,0,0-.867-1.136,1.158,1.158,0,0,0-1.445.828l-3.505,12.712a1.144,1.144,0,0,0,.443,1.252,1.189,1.189,0,0,0,1.348.039s10.073-6.414,11.229-7.146c1.136.732,11.036,7.126,11.036,7.126a1.16,1.16,0,0,0,1.329-.039,1.2,1.2,0,0,0,.5-.963,1.485,1.485,0,0,0-.039-.289s-2.947-11.479-3.274-12.77l10.15-8.436a1.191,1.191,0,0,0,.424-.905,1.122,1.122,0,0,0-.058-.366,1.158,1.158,0,0,0-1.059-.809l-13.116-.751c-.5-1.271-4.8-12.327-4.8-12.327a1.4,1.4,0,0,0-1.175-.77Z" transform="translate(-384.584 -169.6)" fill="#fff"/>
          </g>
        </g>
      </g>
      <g id="Group_39" data-name="Group 39" transform="translate(4.314 84.746)">
        <path id="_24499296" d="M162.8,487.9V475.4h6.452v1.387H164.4v4.025h4.507V482.2H164.4v4.314h4.95V487.9Z" transform="translate(-162.8 -475.15)" fill="#fff"/>
        <path id="_24498632" d="M215.771,475.4v12.5h-2.176l-4.95-10.824h-.039V487.9H207.2V475.4h2.253l4.854,10.709h.039V475.4Z" transform="translate(-198.648 -475.15)" fill="#fff"/>
        <path id="_148225832" d="M263.2,487.9V475.4h6.433v1.387h-4.854v4.025h4.507V482.2h-4.507v4.314h4.969V487.9Z" transform="translate(-243.863 -475.15)" fill="#fff"/>
        <path id="_148224968" d="M308.618,476.867h2.408a1.694,1.694,0,0,1,1.676,1.907c0,1.1-.559,2.08-1.695,2.08h-2.388v-3.987Zm1.868,5.374a1.652,1.652,0,0,1,1.888,1.6c.135,1.656.039,3.293.481,4.16h1.656a18.352,18.352,0,0,1-.443-3.274c-.077-2.5-.6-2.985-2.042-3.216v-.039a2.7,2.7,0,0,0,2.292-2.851,2.82,2.82,0,0,0-3-3.12H307V488h1.6v-5.74h1.888Z" transform="translate(-279.227 -475.23)" fill="#fff"/>
        <path id="_148224128" d="M359.263,477.782c0-1.483-.6-2.273-2.215-2.273-.5,0-2.292.1-2.292,2.7v4.237c0,2.735.79,3.428,2.292,3.428a3.894,3.894,0,0,0,2.234-.559v-3.737h-2.311V480.19h3.891v6.086a7.657,7.657,0,0,1-3.833.944c-2.639,0-3.929-1.368-3.929-4.834v-4.1c0-2.485,1.29-4.083,3.929-4.083,2.7,0,3.987.982,3.891,3.6h-1.656Z" transform="translate(-316.448 -474.181)" fill="#fff"/>
        <path id="_148223496" d="M404.841,475.4h1.618l-3.409,7.743V487.9h-1.6v-4.757L398.1,475.4h1.772l2.446,6.048Z" transform="translate(-352.78 -475.15)" fill="#fff"/>
        <path id="_148223112" d="M462.751,483.133v.366a1.984,1.984,0,0,0,2.1,2.234c1.271,0,2.234-.539,2.234-2.022,0-2.774-5.6-2.465-5.6-6.221,0-2.215,1.579-3.39,3.679-3.39,2.292,0,3.563,1.117,3.467,3.659h-1.656c.019-1.367-.424-2.273-1.926-2.273a1.738,1.738,0,0,0-1.926,1.83c0,2.754,5.6,2.35,5.6,6.317,0,2.639-1.83,3.486-3.891,3.486-3.7.038-3.7-2.793-3.659-3.987Z" transform="translate(-403.699 -474.1)" fill="#fff"/>
        <path id="_148222488" d="M512.266,475.4v1.387h-3.274V487.9h-1.6V476.787H504.1V475.4Z" transform="translate(-438.364 -475.15)" fill="#fff"/>
        <path id="_148222104" d="M546.634,483.547h-3.987l1.965-6.664h.039l1.984,6.664ZM539.7,487.9h1.618l.944-2.985h4.815l.905,2.985h1.791l-4.064-12.5h-2.022L539.7,487.9Z" transform="translate(-467.108 -475.15)" fill="#fff"/>
        <path id="_148220648" d="M599.9,476.867h2.408a1.694,1.694,0,0,1,1.676,1.907c0,1.1-.559,2.08-1.695,2.08H599.9v-3.987Zm1.868,5.374a1.652,1.652,0,0,1,1.887,1.6c.135,1.656.039,3.293.482,4.16h1.656a18.187,18.187,0,0,1-.424-3.274c-.077-2.5-.6-2.985-2.042-3.216v-.039a2.7,2.7,0,0,0,2.292-2.851,2.82,2.82,0,0,0-3-3.12H598.3V488h1.6v-5.74h1.868Z" transform="translate(-514.421 -475.23)" fill="#fff"/>
      </g>
    </g>
  </g>
</svg>
