<svg xmlns="http://www.w3.org/2000/svg" width="45.023" height="49.403" viewBox="0 0 45.023 49.403">
  <path id="experience" d="M37.065,33.022a11.886,11.886,0,0,1,7.377,10.956v4.956a1.158,1.158,0,0,1-1.156,1.158H21.937a1.156,1.156,0,0,1-1.156-1.158V43.977a11.886,11.886,0,0,1,7.377-10.956,7.822,7.822,0,0,1-.923-.786,7.606,7.606,0,1,1,10.755,0,7.822,7.822,0,0,1-.923.786Zm-20.79-17.2-.751,1.242a1.152,1.152,0,0,1-.727.529l-1.417.331.951,1.1a1.145,1.145,0,0,1,.277.851h0l-.126,1.455,1.338-.566a1.147,1.147,0,0,1,.9,0l1.338.566-.124-1.455a1.156,1.156,0,0,1,.333-.914l.9-1.035-1.417-.331a1.149,1.149,0,0,1-.73-.529l-.751-1.242ZM13.8,15.451,15.275,13a1.158,1.158,0,0,1,1.991-.014l1.489,2.466,2.806.653v0a1.166,1.166,0,0,1,.492.252,1.15,1.15,0,0,1,.117,1.627L20.287,20.16l.247,2.876h0a1.153,1.153,0,0,1-1.6,1.158l-2.655-1.121-2.566,1.084a1.157,1.157,0,0,1-1.69-1.121l.247-2.876-1.837-2.121a1.141,1.141,0,0,1-.3-.548,1.159,1.159,0,0,1,.862-1.389l2.806-.653ZM33.611,1.265l2.275,3.771,4.305,1a1.157,1.157,0,0,1,.564,1.937L37.911,11.26l.378,4.413a1.157,1.157,0,0,1-1.69,1.119l-3.984-1.683-4.075,1.72a1.153,1.153,0,0,1-1.51-.615,1.135,1.135,0,0,1-.086-.543h0l.378-4.413-2.893-3.34a1.154,1.154,0,0,1,.117-1.627,1.174,1.174,0,0,1,.494-.252v0l4.305-1,2.284-3.785A1.156,1.156,0,0,1,33.212.855a1.12,1.12,0,0,1,.4.408Zm.545,5.385L32.611,4.088,31.065,6.649a1.152,1.152,0,0,1-.727.529l-2.918.678,1.907,2.2a1.164,1.164,0,0,1,.336.911l-.256,2.988,2.758-1.165a1.147,1.147,0,0,1,.9,0l2.758,1.165-.256-2.988h0a1.145,1.145,0,0,1,.277-.851L37.8,7.855l-2.918-.678a1.144,1.144,0,0,1-.727-.529ZM49.946,13l1.478,2.452,2.806.653a1.154,1.154,0,0,1,.862,1.389,1.141,1.141,0,0,1-.3.548l-1.837,2.121.247,2.876a1.158,1.158,0,0,1-1.69,1.121l-2.566-1.084L46.291,24.2a1.153,1.153,0,0,1-1.51-.615,1.135,1.135,0,0,1-.086-.543h0l.247-2.876-1.883-2.175a1.154,1.154,0,0,1,.117-1.627,1.18,1.18,0,0,1,.492-.252v0l2.806-.653,1.489-2.466a1.156,1.156,0,0,1,1.587-.394,1.184,1.184,0,0,1,.4.408ZM49.7,17.064l-.751-1.242L48.2,17.064a1.157,1.157,0,0,1-.73.529l-1.417.331.9,1.035a1.156,1.156,0,0,1,.333.914l-.124,1.455,1.338-.566a1.147,1.147,0,0,1,.9,0l1.338.566L50.6,19.873h0a1.145,1.145,0,0,1,.277-.851l.951-1.1-1.417-.331a1.144,1.144,0,0,1-.727-.529ZM32.611,32.148a5.292,5.292,0,1,0-3.741-1.55,5.272,5.272,0,0,0,3.741,1.55Zm6.72,5.112a9.517,9.517,0,0,0-16.237,6.72v3.8H42.126v-3.8a9.48,9.48,0,0,0-2.8-6.72Z" transform="translate(-10.101 -0.689)" fill="#fff"/>
</svg>
