<svg id="_24-Product_design" data-name="24-Product design" xmlns="http://www.w3.org/2000/svg" width="40" height="40" viewBox="0 0 40 40">
  <path id="Path_201" data-name="Path 201" d="M39.261,35.217,36.292,41.9a1.271,1.271,0,0,1-2.323,0L31,35.217Zm-6.609,4.13h4.957M35.13,27.783v7.435m-4.13,0V27.783m4.13-1.652V22M31,26.13V24.478" transform="translate(-5.217 -3.652)" fill="none" stroke="#fff" stroke-linejoin="round" stroke-width="2"/>
  <path id="Path_202" data-name="Path 202" d="M26.609,39H5.957V19.174H1v-3.3L20,1,39,15.87v3.3H34.043V31.565" fill="none" stroke="#fff" stroke-linejoin="round" stroke-width="2"/>
  <path id="Path_203" data-name="Path 203" d="M11.652,37.565V28.891a3.717,3.717,0,0,1,7.435,0v7.848h7.435m-9.913-5.783v1.652m4.957-16.522V7m-4.957,9.087V11.13m7.435,4.957H33.13L21.565,7,10,16.087h9.087m7.435,0V11.13" transform="translate(-1.565 -1.043)" fill="none" stroke="#fff" stroke-linejoin="round" stroke-width="2"/>
</svg>
