<svg xmlns="http://www.w3.org/2000/svg" width="28" height="28" viewBox="0 0 28 28">
  <g id="Looding_8" data-name="Looding 8" transform="translate(-2 -2)">
    <rect id="Rectangle_61" data-name="Rectangle 61" width="8" height="2" transform="translate(22 15)" fill="#bf1e2e"/>
    <rect id="Rectangle_62" data-name="Rectangle 62" width="8" height="2" transform="translate(20.692 12.13) rotate(-30)" fill="#bf1e2e" opacity="0.01"/>
    <rect id="Rectangle_63" data-name="Rectangle 63" width="8" height="2" transform="translate(18.13 10.307) rotate(-60)" fill="#bf1e2e" opacity="0.05"/>
    <rect id="Rectangle_64" data-name="Rectangle 64" width="2" height="8" transform="translate(15 2)" fill="#bf1e2e" opacity="0.1"/>
    <rect id="Rectangle_65" data-name="Rectangle 65" width="2" height="8" transform="translate(8.13 4.373) rotate(-30)" fill="#bf1e2e" opacity="0.2"/>
    <rect id="Rectangle_66" data-name="Rectangle 66" width="2" height="8" transform="translate(3.372 9.869) rotate(-60)" fill="#bf1e2e" opacity="0.3"/>
    <rect id="Rectangle_67" data-name="Rectangle 67" width="8" height="2" transform="translate(2 15)" fill="#bf1e2e" opacity="0.4"/>
    <rect id="Rectangle_68" data-name="Rectangle 68" width="8.028" height="2.007" transform="translate(3.386 22.21) rotate(-29.887)" fill="#bf1e2e" opacity="0.5"/>
    <rect id="Rectangle_69" data-name="Rectangle 69" width="8" height="2" transform="translate(8.13 27.627) rotate(-60)" fill="#bf1e2e" opacity="0.6"/>
    <rect id="Rectangle_70" data-name="Rectangle 70" width="2" height="8" transform="translate(15 22)" fill="#bf1e2e" opacity="0.7"/>
    <rect id="Rectangle_71" data-name="Rectangle 71" width="2" height="8" transform="translate(18.13 21.692) rotate(-30)" fill="#bf1e2e" opacity="0.8"/>
    <rect id="Rectangle_72" data-name="Rectangle 72" width="2" height="8" transform="translate(20.693 19.87) rotate(-60)" fill="#bf1e2e" opacity="0.9"/>
  </g>
</svg>
