<svg xmlns="http://www.w3.org/2000/svg" width="42.949" height="36.74" viewBox="0 0 42.949 36.74">
  <g id="Layer_2" data-name="Layer 2" transform="translate(0.529 0.495)">
    <g id="Capa_1" data-name="Capa 1" transform="translate(0.015 0.008)">
      <path id="Path_66" data-name="Path 66" d="M75.87,111.373v-.638h-.319a.638.638,0,1,0,0,1.266h.957a.638.638,0,0,1-.638-.628Z" transform="translate(-55.892 -82.7)" fill="#fff" stroke="#fff" stroke-width="1"/>
      <path id="Path_67" data-name="Path 67" d="M63.8,110.735H62.025a.638.638,0,0,0,0,1.266H63.8a.638.638,0,1,0,0-1.266Z" transform="translate(-45.91 -82.7)" fill="#fff" stroke="#fff" stroke-width="1"/>
      <path id="Path_68" data-name="Path 68" d="M49.787,110.735H48.015a.638.638,0,0,0,0,1.266h1.772a.638.638,0,1,0,0-1.266Z" transform="translate(-35.446 -82.7)" fill="#fff" stroke="#fff" stroke-width="1"/>
      <path id="Path_69" data-name="Path 69" d="M35.313,110.735H33.541a.638.638,0,1,0,0,1.266h1.772a.638.638,0,0,0,0-1.266Z" transform="translate(-24.517 -82.7)" fill="#fff" stroke="#fff" stroke-width="1"/>
      <path id="Path_70" data-name="Path 70" d="M23.96,107.69h-.319v-.319a.638.638,0,1,0-1.266,0v.957a.638.638,0,0,0,.64.638h.954a.638.638,0,0,0,0-1.266Z" transform="translate(-16.711 -79.655)" fill="#fff" stroke="#fff" stroke-width="1"/>
      <path id="Path_71" data-name="Path 71" d="M23.656,67.119a.638.638,0,0,0-1.266.025v.775h0A2.8,2.8,0,0,1,23.656,67.119Z" transform="translate(-16.726 -49.721)" fill="#fff" stroke="#fff" stroke-width="1"/>
      <path id="Path_72" data-name="Path 72" d="M23.955,100.021V99.11l-1.165,1.266a.638.638,0,0,0,1.165-.359Z" transform="translate(-17.024 -74.021)" fill="#fff" stroke="#fff" stroke-width="1"/>
      <path id="Path_73" data-name="Path 73" d="M23.611,57.375v-.319h.319a.64.64,0,0,0,0-1.266h-.954a.638.638,0,0,0-.64.638v.959a.638.638,0,1,0,1.266,0Z" transform="translate(-16.681 -41.668)" fill="#fff" stroke="#fff" stroke-width="1"/>
      <path id="Path_74" data-name="Path 74" d="M34.061,57.056h1.266a9.233,9.233,0,0,1-.9-1.266h-.367a.64.64,0,0,0,0,1.266Z" transform="translate(-25.037 -41.668)" fill="#fff" stroke="#fff" stroke-width="1"/>
      <path id="Path_75" data-name="Path 75" d="M87.294,81.791v-.638H80.266V71.12A9.767,9.767,0,0,1,79,71.568V81.791a.638.638,0,0,0,.638.638h8.309a.635.635,0,0,1-.653-.638Z" transform="translate(-59.004 -53.117)" fill="#fff" stroke="#fff" stroke-width="1"/>
      <path id="Path_76" data-name="Path 76" d="M97.77,57.018h9.554v6.959h.63a.638.638,0,0,1,.64.638V56.378a.638.638,0,0,0-.64-.638H98.661A9.417,9.417,0,0,1,97.77,57.018Z" transform="translate(-73.022 -41.631)" fill="#fff" stroke="#fff" stroke-width="1"/>
      <path id="Path_77" data-name="Path 77" d="M118.4,88.28H112.4a.635.635,0,0,0-.635.638v5.689a.635.635,0,0,0,.635.638H118.4a.638.638,0,0,0,.641-.638V88.918a.638.638,0,0,0-.641-.638Zm-.638,5.689h-4.729V89.556h4.737Z" transform="translate(-83.471 -65.933)" fill="#fff" stroke="#fff" stroke-width="1"/>
      <path id="Path_78" data-name="Path 78" d="M34.242,15.4c.134.162.276.322.425.476l.413-.453a.635.635,0,0,1,.9-.038,8.116,8.116,0,1,1,5.481,2.132,8.116,8.116,0,0,1-5.481-2.132.638.638,0,0,1,.041.9l-.418.453a9.367,9.367,0,0,0,8.316,1.724,9.767,9.767,0,0,0,1.266-.448,9.367,9.367,0,0,0,3.19-2.278c.106-.114.205-.23.3-.347A9.39,9.39,0,1,0,33.331,14.12a9.233,9.233,0,0,0,.911,1.276Z" transform="translate(-23.945 -0.008)" fill="#fff" stroke="#fff" stroke-width="1"/>
      <path id="Path_79" data-name="Path 79" d="M46.667,23.322a6.225,6.225,0,1,0-.382-8.792,6.225,6.225,0,0,0,.382,8.792Zm4.2-9.534a4.947,4.947,0,1,1-3.646,1.605,4.947,4.947,0,0,1,3.646-1.605Z" transform="translate(-33.349 -9.345)" fill="#fff" stroke="#fff" stroke-width="1"/>
      <path id="Path_80" data-name="Path 80" d="M38.925,61.129a.64.64,0,1,0-.944-.863l-.415.453L35.94,62.491a2.562,2.562,0,0,1,.506.372,2.722,2.722,0,0,1,.42.489l1.625-1.772Z" transform="translate(-26.845 -44.856)" fill="#fff" stroke="#fff" stroke-width="1"/>
      <path id="Path_81" data-name="Path 81" d="M5.781,77.352l1.165-1.266,2.861-3.121a2.8,2.8,0,0,0,.253-3.466,2.722,2.722,0,0,0-.428-.494,2.562,2.562,0,0,0-.506-.372,2.805,2.805,0,0,0-3.433.544h0L.748,74.562a2.795,2.795,0,1,0,4.127,3.77Zm-4,.22a1.519,1.519,0,0,1-.094-2.149L6.621,70.04A1.524,1.524,0,1,1,8.872,72.1L3.933,77.478a1.519,1.519,0,0,1-2.149.094Z" transform="translate(-0.015 -50.992)" fill="#fff" stroke="#fff" stroke-width="1"/>
      <path id="Path_82" data-name="Path 82" d="M157.438,50.93H155.43a.64.64,0,0,1,.651.638v.646h1.367a.64.64,0,0,0,0-1.266Z" transform="translate(-116.085 -38.038)" fill="#fff" stroke="#fff" stroke-width="1"/>
      <path id="Path_83" data-name="Path 83" d="M147.343,50.908h-2a.64.64,0,1,0,0,1.266H146.7v-.628A.638.638,0,0,1,147.343,50.908Z" transform="translate(-107.998 -38.016)" fill="#fff" stroke="#fff" stroke-width="1"/>
      <path id="Path_84" data-name="Path 84" d="M132.75,129.785a.638.638,0,0,0,.638.64H135.3a.638.638,0,0,0,0-1.266h-1.916A.635.635,0,0,0,132.75,129.785Z" transform="translate(-99.147 -96.464)" fill="#fff" stroke="#fff" stroke-width="1"/>
      <path id="Path_85" data-name="Path 85" d="M102.881,129.105a.638.638,0,1,0,0,1.266H104.8a.638.638,0,1,0,0-1.266Z" transform="translate(-76.303 -96.419)" fill="#fff" stroke="#fff" stroke-width="1"/>
      <path id="Path_86" data-name="Path 86" d="M118.021,129.105a.638.638,0,1,0,0,1.266h1.916a.638.638,0,1,0,0-1.266Z" transform="translate(-87.61 -96.419)" fill="#fff" stroke="#fff" stroke-width="1"/>
      <path id="Path_87" data-name="Path 87" d="M153.548,111.45a.638.638,0,0,0-.638.638V114a.64.64,0,0,0,1.278,0V112.1a.64.64,0,0,0-.641-.646Z" transform="translate(-114.203 -83.237)" fill="#fff" stroke="#fff" stroke-width="1"/>
      <path id="Path_88" data-name="Path 88" d="M153.548,66.07a.635.635,0,0,0-.638.635v1.916a.64.64,0,0,0,1.278,0V66.705A.638.638,0,0,0,153.548,66.07Z" transform="translate(-114.203 -49.346)" fill="#fff" stroke="#fff" stroke-width="1"/>
      <path id="Path_89" data-name="Path 89" d="M149.555,126.58a.638.638,0,0,0-.638.64h-.635a.638.638,0,1,0,0,1.266h1.266a.641.641,0,0,0,.64-.641v-.638a.641.641,0,0,0-.633-.628Z" transform="translate(-110.21 -94.537)" fill="#fff" stroke="#fff" stroke-width="1"/>
      <path id="Path_90" data-name="Path 90" d="M153.548,96.33a.635.635,0,0,0-.638.635v1.916a.64.64,0,0,0,1.278,0V96.965a.638.638,0,0,0-.64-.635Z" transform="translate(-114.203 -71.945)" fill="#fff" stroke="#fff" stroke-width="1"/>
      <path id="Path_91" data-name="Path 91" d="M153.548,81.19a.638.638,0,0,0-.638.638v1.916a.64.64,0,0,0,1.278,0V81.828A.64.64,0,0,0,153.548,81.19Z" transform="translate(-114.203 -60.638)" fill="#fff" stroke="#fff" stroke-width="1"/>
      <path id="Path_92" data-name="Path 92" d="M97.338,130.411a.638.638,0,1,0,0-1.266H97.3v1.266Z" transform="translate(-72.671 -96.449)" fill="#fff" stroke="#fff" stroke-width="1"/>
      <path id="Path_93" data-name="Path 93" d="M153.548,50.93a.638.638,0,0,0-.638.638v1.911a.644.644,0,1,0,1.289,0V51.568a.64.64,0,0,0-.651-.638Z" transform="translate(-114.203 -38.038)" fill="#fff" stroke="#fff" stroke-width="1"/>
      <path id="Path_94" data-name="Path 94" d="M92.868,122.57a.638.638,0,0,0-.64.638v3.314a.64.64,0,1,0,1.266,0v-3.314A.641.641,0,0,0,92.868,122.57Z" transform="translate(-68.877 -91.542)" fill="#fff" stroke="#fff" stroke-width="1"/>
    </g>
  </g>
</svg>
