<svg xmlns="http://www.w3.org/2000/svg" xmlns:xlink="http://www.w3.org/1999/xlink" width="420" height="283" viewBox="0 0 420 283">
  <defs>
    <clipPath id="clip-path">
      <rect id="Rectangle_78" data-name="Rectangle 78" width="420" height="283" transform="translate(120 6749)" fill="#f5f5f5" opacity="0.95"/>
    </clipPath>
  </defs>
  <g id="star" transform="translate(-120 -6749)" clip-path="url(#clip-path)">
    <path id="_24501840" d="M582.621,169.6a8.159,8.159,0,0,0-7.683,5.256s-30.326,77.634-33.7,86.53c-9.435.539-92.325,4.852-92.325,4.852a8.265,8.265,0,0,0-7.817,8.222v.4a8.3,8.3,0,0,0,8.761,7.817l97.717-5.122a8.377,8.377,0,0,0,7.278-5.256s18.465-47.578,28.035-71.839c9.435,24.261,27.9,71.569,27.9,71.569a8.588,8.588,0,0,0,7.144,5.256s50.408,2.83,76.152,4.448c-19.813,16.443-58.9,48.926-58.9,48.926A8.332,8.332,0,0,0,632.22,337a10.389,10.389,0,0,0,.27,2.022s12.535,48.926,19,74c-21.7-14.017-64.021-41.243-64.021-41.243a8.183,8.183,0,0,0-8.9,0S535.851,399,513.612,413.15c6.739-24.4,18.87-68.2,18.87-68.2a11.811,11.811,0,0,0,.27-2.157,8.331,8.331,0,0,0-6.065-7.952,8.105,8.105,0,0,0-10.109,5.8l-24.53,88.956a8.006,8.006,0,0,0,3.1,8.761,8.318,8.318,0,0,0,9.435.269s70.491-44.882,78.578-50c7.952,5.122,77.23,49.869,77.23,49.869a8.117,8.117,0,0,0,9.3-.27,8.429,8.429,0,0,0,3.5-6.739,10.386,10.386,0,0,0-.27-2.022s-20.622-80.33-22.913-89.36c7.143-5.93,71.03-59.034,71.03-59.034a8.334,8.334,0,0,0,2.965-6.335,7.848,7.848,0,0,0-.4-2.561,8.106,8.106,0,0,0-7.413-5.661s-82.352-4.717-91.786-5.256c-3.5-8.9-33.56-86.26-33.56-86.26-1.887-3.235-4.852-5.391-8.222-5.391Z" transform="translate(-309.006 6559.418)" fill="#f5f5f5"/>
  </g>
</svg>
