<svg xmlns="http://www.w3.org/2000/svg" width="39.957" height="33.841" viewBox="0 0 39.957 33.841">
  <path id="certification" d="M37.09,7.7H2.328A2.393,2.393,0,0,0,0,10.067v23.4a2.332,2.332,0,0,0,2.328,2.328H11.6a.869.869,0,0,0,.039.316,2.43,2.43,0,0,0,1.1,1.657,2.561,2.561,0,0,0,1.776.355h.039a.252.252,0,0,1,.237,0,.4.4,0,0,1,.237.2.3.3,0,0,1,.039.2v.039a2.417,2.417,0,0,0,1.736,2.407h.039l.237.039a1.342,1.342,0,0,0,.395.039,2.309,2.309,0,0,0,.513-.079,2.423,2.423,0,0,0,1.342-.829l.039-.079a.487.487,0,0,1,.316-.158.359.359,0,0,1,.316.158l.039.039a2.452,2.452,0,0,0,1.381.868h.039a2.142,2.142,0,0,0,.868,0,.743.743,0,0,0,.316-.079,2.415,2.415,0,0,0,1.736-2.328v-.079a.3.3,0,0,1,.039-.2.4.4,0,0,1,.237-.2.252.252,0,0,1,.237,0,2.647,2.647,0,0,0,1.815-.316,2.489,2.489,0,0,0,1.1-1.973H37.09a2.341,2.341,0,0,0,2.367-2.328v-23.4A2.374,2.374,0,0,0,37.09,7.7ZM28.172,29.875c-.039-.039-.039-.079-.079-.079-.039-.079-.118-.118-.158-.2l-.079-.079A.545.545,0,0,0,27.7,29.4l-.079-.079c-.039-.039-.118-.079-.158-.118-.039,0-.039-.039-.079-.039-.079-.039-.2-.079-.276-.118-.039,0-.079-.039-.158-.039-.039,0-.079-.039-.118-.039a.671.671,0,0,0-.276-.039.43.43,0,0,1-.395-.434.237.237,0,0,1,.039-.158,2.4,2.4,0,0,0-.2-2.249,2.368,2.368,0,0,0-2.012-1.065,2.483,2.483,0,0,0-1.3.355.145.145,0,0,1-.118.039.4.4,0,0,1-.513-.316,2.408,2.408,0,0,0-4.577,0,.428.428,0,0,1-.434.316.5.5,0,0,1-.237-.039,2.419,2.419,0,0,0-3.67,2.486l.118.473c0,.039.039.118.039.158a.43.43,0,0,1-.395.434,2.211,2.211,0,0,0-1.618.986H9.746a4.988,4.988,0,0,0-3.867-3.867V17.485a4.988,4.988,0,0,0,3.867-3.867H29.672a4.988,4.988,0,0,0,3.867,3.867v8.562a4.988,4.988,0,0,0-3.867,3.867h-1.5Zm-2.525,6.234a.347.347,0,0,1-.276.039,2.356,2.356,0,0,0-2.683,1.263,2.487,2.487,0,0,0-.276,1.184.462.462,0,0,1-.316.434h-.237a.394.394,0,0,1-.2-.158.545.545,0,0,1-.118-.158c-.039-.079-.118-.118-.2-.2a2.421,2.421,0,0,0-3.393.2l-.039.039c-.039.039-.079.079-.079.118a.324.324,0,0,1-.237.158h-.237a.433.433,0,0,1-.316-.473v-.079a2.386,2.386,0,0,0-1.578-2.249,3.073,3.073,0,0,0-.829-.158,1.981,1.981,0,0,0-.473.079h-.039a.475.475,0,0,1-.513-.395.425.425,0,0,1,.079-.316,2.6,2.6,0,0,0,.671-1.578,2.412,2.412,0,0,0-1.026-1.973,1.716,1.716,0,0,0-.276-.158.434.434,0,0,1-.237-.395.237.237,0,0,1,.039-.158.379.379,0,0,1,.355-.276,2.452,2.452,0,0,0,2.091-2.367,2.249,2.249,0,0,0-.158-.868v-.079a.379.379,0,0,1,.237-.513.427.427,0,0,1,.434,0,2.37,2.37,0,0,0,3.591-1.263.428.428,0,0,1,.434-.316.561.561,0,0,1,.237.079.394.394,0,0,1,.158.2,3.982,3.982,0,0,0,.276.592,3.034,3.034,0,0,0,.71.71,2.315,2.315,0,0,0,2.644.039.561.561,0,0,1,.237-.079c.079,0,.118.039.2.039.039.039.118.079.118.118a.426.426,0,0,1,0,.434,2.249,2.249,0,0,0-.158.868,2.363,2.363,0,0,0,1.263,2.091,2.24,2.24,0,0,0,.868.276.3.3,0,0,1,.2.079.217.217,0,0,1,.118.2c0,.039.039.079.039.158a.345.345,0,0,1-.237.355,2.492,2.492,0,0,0-1.3,2.17,2.346,2.346,0,0,0,.631,1.578.039.039,0,0,0,.039.039.561.561,0,0,1,.079.237A2.06,2.06,0,0,1,25.647,36.109Zm11.837-2.644a.373.373,0,0,1-.395.395H27.107a.434.434,0,0,1,.237-.395,2.357,2.357,0,0,0,1.223-1.578h2.012a.977.977,0,0,0,.986-.986,2.981,2.981,0,0,1,2.959-2.959.977.977,0,0,0,.986-.986V16.578a.977.977,0,0,0-.986-.986,2.981,2.981,0,0,1-2.959-2.959.977.977,0,0,0-.986-.986H8.878a.977.977,0,0,0-.986.986,2.981,2.981,0,0,1-2.959,2.959.977.977,0,0,0-.986.986V26.916a.977.977,0,0,0,.986.986,2.981,2.981,0,0,1,2.959,2.959.977.977,0,0,0,.986.986H10.93a2.52,2.52,0,0,0,1.223,1.618.434.434,0,0,1,.237.395H2.328a.389.389,0,0,1-.355-.395v-23.4a.354.354,0,0,1,.355-.355h34.8a.354.354,0,0,1,.355.355ZM23.2,30.309l-1.657-.237-.75-1.5a1.247,1.247,0,0,0-.552-.552,1.182,1.182,0,0,0-1.578.552l-.75,1.5-1.657.237a1.224,1.224,0,0,0-.71.355,1.179,1.179,0,0,0,.039,1.657L16.809,33.5l-.276,1.657a1.26,1.26,0,0,0,.473,1.184,1.1,1.1,0,0,0,.71.237,1.26,1.26,0,0,0,.552-.118l1.5-.789,1.5.789a1.341,1.341,0,0,0,.789.118A1.2,1.2,0,0,0,23,35.2l-.276-1.657,1.223-1.184a1.224,1.224,0,0,0,.355-.71A1.351,1.351,0,0,0,23.2,30.309ZM20.991,32.4a1.311,1.311,0,0,0-.355,1.065l.079.513-.434-.237a1.105,1.105,0,0,0-1.1,0l-.434.237.079-.513a1.1,1.1,0,0,0-.355-1.065l-.355-.355.513-.079a1.213,1.213,0,0,0,.908-.671l.237-.473L20,31.3a1.238,1.238,0,0,0,.908.671l.513.079Zm7.615-15.7a.977.977,0,0,1-.986.986H11.837a.986.986,0,0,1,0-1.973H27.62A1,1,0,0,1,28.606,16.7Zm0,3.67a.977.977,0,0,1-.986.986H11.837a.986.986,0,0,1,0-1.973H27.62A1,1,0,0,1,28.606,20.366Z" transform="translate(0.25 -7.45)" fill="#fff" stroke="#fff" stroke-width="0.5"/>
</svg>
