<svg xmlns="http://www.w3.org/2000/svg" width="35.951" height="45.49" viewBox="0 0 35.951 45.49">
  <path id="_76_shield_secure_security" data-name="76 shield, secure, security" d="M22.475,46.483a1.493,1.493,0,0,1-.588-.111C21.189,46.086,5,39.493,5,29.008V9.944A1.589,1.589,0,0,1,6,8.466L22.158,2.112a1.589,1.589,0,0,1,1.176,0L38.966,8.466a1.589,1.589,0,0,1,.985,1.477V29.008c0,10.485-16.189,17.078-16.888,17.364A1.493,1.493,0,0,1,22.475,46.483ZM8.177,11.024V29.008c0,6.625,9.8,12.233,14.3,14.171,2.764-1.223,14.3-6.784,14.3-14.171v-18L22.73,5.305ZM21.9,28.643,31.435,20.7,29.4,18.253,20.887,25.4l-5.4-4.019-1.906,2.542,6.355,4.766a1.593,1.593,0,0,0,1.97-.048Z" transform="translate(-4.5 -1.493)" fill="#fff" stroke="#4a5158" stroke-width="1"/>
</svg>
