<svg xmlns="http://www.w3.org/2000/svg" width="38.955" height="38.978" viewBox="0 0 38.955 38.978">
  <g id="_Group_" data-name="&lt;Group&gt;" transform="translate(-15.883 -15.783)">
    <path id="_Path_" data-name="&lt;Path&gt;" d="M195.6,208.89l-5.776,5.456-2.772-2.852a.8.8,0,0,0-1.146,1.114l3.325,3.413a.813.813,0,0,0,1.13.024l6.353-5.992a.8.8,0,0,0,.032-1.13A.818.818,0,0,0,195.6,208.89Z" transform="translate(-155.948 -177.19)" fill="#fff" stroke="#fff" stroke-width="0.5"/>
    <path id="_Compound_Path_" data-name="&lt;Compound Path&gt;" d="M118.569,106.6a11.969,11.969,0,1,0,11.969,11.969A11.98,11.98,0,0,0,118.569,106.6Zm0,22.335a10.366,10.366,0,1,1,10.366-10.366A10.378,10.378,0,0,1,118.569,128.935Z" transform="translate(-83.204 -83.296)" fill="#fff" stroke="#fff" stroke-width="0.5"/>
    <path id="_Compound_Path_2" data-name="&lt;Compound Path&gt;" d="M51.835,30.867l.264-4.751a.8.8,0,0,0-.441-.761l-4.23-2.139-2.139-4.23a.812.812,0,0,0-.761-.441l-4.759.256-3.965-2.62a.8.8,0,0,0-.881,0L30.959,18.8l-4.751-.264a.8.8,0,0,0-.761.441l-2.139,4.23-4.23,2.139a.812.812,0,0,0-.441.761l.264,4.751-2.62,3.965a.8.8,0,0,0,0,.881l2.612,3.973-.264,4.751a.8.8,0,0,0,.441.761l4.23,2.139,2.139,4.23A.812.812,0,0,0,26.2,52l4.751-.264,3.965,2.62a.781.781,0,0,0,.881,0l3.965-2.62L44.513,52a.8.8,0,0,0,.761-.441l2.139-4.23,4.23-2.139a.812.812,0,0,0,.441-.761l-.264-4.751,2.62-3.965a.8.8,0,0,0,0-.881Zm-1.49,8.155a.751.751,0,0,0-.128.489L50.466,44l-4,2.019a.79.79,0,0,0-.352.352l-2.019,4L39.6,50.125a.877.877,0,0,0-.489.128l-3.749,2.475-3.749-2.475a.794.794,0,0,0-.441-.136h-.04l-4.494.248-2.019-4a.79.79,0,0,0-.352-.352L20.264,44l.248-4.494a.877.877,0,0,0-.128-.489l-2.475-3.749,2.475-3.749a.751.751,0,0,0,.128-.489l-.248-4.494,4-2.019a.79.79,0,0,0,.352-.352l2.019-4,4.494.248a.877.877,0,0,0,.489-.128l3.749-2.475,3.749,2.475a.751.751,0,0,0,.489.128l4.494-.248,2.019,4a.79.79,0,0,0,.352.352l4,2.019-.248,4.494a.877.877,0,0,0,.128.489l2.475,3.749Z" transform="translate(0 0)" fill="#fff" stroke="#fff" stroke-width="0.5"/>
  </g>
</svg>
